<?xml version="1.0" standalone="no"?>
<!DOCTYPE svg PUBLIC "-//W3C//DTD SVG 20010904//EN"
 "http://www.w3.org/TR/2001/REC-SVG-20010904/DTD/svg10.dtd">
<svg version="1.0" xmlns="http://www.w3.org/2000/svg"
 width="924.000000pt" height="266.000000pt" viewBox="0 0 924.000000 266.000000"
 preserveAspectRatio="xMidYMid meet">
<metadata>
Created by potrace 1.16, written by Peter Selinger 2001-2019
</metadata>
<g transform="translate(0.000000,266.000000) scale(0.100000,-0.100000)"
fill="#FFE21F22" stroke="none">
<path d="M3239 2645 c-60 -19 -137 -89 -168 -151 -33 -64 -40 -172 -17 -242
22 -65 91 -143 154 -174 70 -34 197 -32 267 4 106 56 160 145 160 268 0 91
-15 135 -64 198 -75 94 -214 135 -332 97z"/>
<path d="M1817 2596 c-88 -32 -167 -115 -184 -195 -5 -20 -8 -389 -8 -821 l0
-785 28 -57 c51 -104 140 -161 252 -162 116 -1 201 51 258 158 19 36 23 61 27
209 l5 168 153 -226 c127 -187 162 -232 200 -256 62 -39 114 -52 187 -46 106
8 187 66 233 165 20 45 24 65 21 131 -5 97 -15 113 -197 326 l-134 155 90 96
c109 114 135 163 140 260 3 57 0 81 -18 123 -71 163 -300 214 -438 95 -23 -20
-87 -94 -142 -166 l-99 -129 -3 388 c-3 436 0 417 -81 501 -71 73 -194 102
-290 68z"/>
<path d="M4062 2364 c-104 -51 -152 -137 -160 -281 -4 -87 -6 -93 -27 -93 -42
0 -121 -30 -158 -61 -43 -36 -65 -74 -82 -144 -10 -37 -13 -43 -14 -22 -5 120
-141 237 -276 237 -121 0 -211 -54 -262 -158 l-28 -57 0 -495 c0 -448 2 -499
17 -533 28 -62 73 -111 130 -143 47 -26 62 -29 138 -29 69 0 93 5 127 23 56
29 111 87 137 142 20 43 21 64 26 510 3 256 7 454 8 439 3 -39 56 -115 101
-144 21 -15 67 -32 100 -38 l61 -12 0 -335 c0 -373 4 -405 63 -481 17 -23 57
-56 87 -73 50 -28 63 -31 140 -31 98 0 140 17 202 82 77 80 78 83 78 486 l0
357 45 0 c86 0 176 64 213 149 17 42 19 133 2 176 -31 79 -111 141 -198 152
l-49 5 -5 90 c-5 73 -11 100 -37 153 -53 107 -130 154 -257 155 -56 0 -80 -5
-122 -26z"/>
<path d="M1118 2017 c-46 -18 -110 -68 -127 -101 l-14 -25 -38 30 c-71 56
-145 83 -244 87 -191 8 -337 -50 -475 -188 -95 -94 -150 -186 -192 -320 -19
-64 -23 -96 -23 -210 1 -158 15 -225 76 -348 64 -131 195 -257 324 -312 78
-33 200 -53 293 -47 70 4 96 11 156 40 39 20 82 47 94 60 l24 25 40 -44 c58
-63 117 -88 203 -88 110 0 195 56 246 160 l24 49 0 525 c0 585 3 558 -71 640
-21 23 -51 48 -68 57 -41 21 -181 27 -228 10z m-287 -539 c96 -54 133 -191 79
-298 -50 -97 -144 -134 -230 -90 -69 35 -110 110 -110 202 0 154 141 254 261
186z"/>
<path d="M7075 2001 c-79 -13 -135 -30 -207 -63 l-67 -31 -35 30 c-54 48 -114
66 -198 61 -110 -7 -185 -56 -236 -152 l-27 -51 0 -505 c0 -505 0 -505 23
-547 53 -100 129 -152 237 -160 119 -10 228 53 276 159 23 52 24 60 27 372 3
270 6 322 19 343 35 54 119 69 168 31 52 -41 55 -62 55 -386 0 -329 4 -356 61
-425 17 -20 52 -49 77 -65 42 -24 56 -27 143 -27 89 0 99 2 145 30 53 33 107
104 124 163 6 21 10 164 10 337 0 283 1 302 20 333 49 81 163 73 204 -13 13
-26 16 -70 16 -215 l0 -183 49 50 c75 76 127 98 236 98 78 0 97 -4 140 -27 28
-14 70 -47 93 -72 23 -25 45 -46 47 -46 3 0 5 123 5 273 0 213 -3 286 -15 332
-60 228 -285 379 -540 362 -95 -7 -189 -34 -304 -89 -82 -39 -86 -40 -110 -24
-139 89 -299 128 -436 107z"/>
<path d="M5286 1984 c-232 -52 -406 -186 -502 -389 -50 -104 -67 -184 -66
-300 2 -198 63 -346 198 -481 69 -70 96 -89 185 -132 117 -57 182 -76 319 -93
238 -29 561 37 679 137 72 62 102 146 81 225 -37 139 -162 183 -360 128 -69
-19 -109 -23 -215 -23 -114 0 -136 2 -182 23 -28 12 -61 34 -74 47 l-22 24
319 0 c175 0 348 5 384 10 104 17 145 58 161 161 23 149 -47 316 -196 465 -98
98 -172 144 -300 184 -93 30 -307 37 -409 14z m246 -430 c29 -15 62 -57 71
-91 l5 -23 -144 0 c-158 0 -160 1 -130 59 19 36 37 50 83 66 40 14 70 11 115
-11z"/>
<path d="M8781 1979 c-66 -26 -137 -94 -171 -164 -36 -71 -40 -207 -11 -286
94 -250 438 -292 580 -70 112 175 53 418 -123 509 -72 36 -198 41 -275 11z
m200 -268 c47 -47 35 -101 -28 -127 -46 -20 -86 -10 -118 28 -33 39 -32 63 4
99 23 23 38 29 71 29 33 0 48 -6 71 -29z"/>
<path d="M8644 1246 c-46 -20 -64 -52 -64 -112 0 -41 5 -59 25 -82 l25 -30
-19 -34 c-29 -49 -34 -105 -16 -172 29 -111 113 -191 235 -222 154 -39 310 28
376 161 23 48 26 64 23 132 -3 60 -9 85 -26 109 l-22 31 25 25 c54 53 35 151
-37 190 -30 16 -60 18 -264 18 -171 -1 -238 -4 -261 -14z m337 -275 c16 -16
29 -38 29 -48 0 -55 -74 -94 -133 -69 -61 25 -75 80 -31 121 39 36 96 34 135
-4z"/>
<path d="M4470 406 l0 -53 -47 4 c-68 6 -82 -7 -89 -88 -8 -76 0 -132 21 -153
11 -11 39 -15 105 -15 l90 0 0 180 0 179 -40 0 -40 0 0 -54z"/>
<path d="M6720 305 c0 -152 1 -156 25 -180 16 -17 35 -25 60 -25 32 0 35 2 35
29 0 20 -6 30 -20 34 -19 5 -20 14 -20 151 l0 146 -40 0 -40 0 0 -155z"/>
<path d="M3940 395 c0 -28 -4 -35 -20 -35 -15 0 -20 -7 -20 -25 0 -18 5 -25
20 -25 18 0 20 -7 20 -89 0 -102 6 -111 75 -119 45 -5 45 -4 45 27 0 24 -4 31
-19 31 -25 0 -31 19 -31 91 0 56 1 59 25 59 20 0 25 5 25 25 0 20 -5 25 -25
25 -22 0 -25 4 -25 35 0 33 -2 35 -35 35 -33 0 -35 -2 -35 -35z"/>
<path d="M4070 252 c0 -95 2 -111 20 -130 23 -25 87 -31 108 -10 9 9 12 9 12
0 0 -7 16 -12 40 -12 l40 0 0 130 0 130 -40 0 -39 0 -3 -97 c-3 -86 -5 -98
-22 -101 -29 -6 -36 16 -36 111 l0 87 -40 0 -40 0 0 -108z"/>
<path d="M4635 349 c-38 -22 -45 -41 -45 -121 0 -64 3 -81 20 -98 25 -25 61
-34 111 -27 68 9 79 27 79 127 0 74 -3 90 -20 105 -24 22 -116 31 -145 14z"/>
<path d="M5015 350 c-40 -16 -50 -39 -50 -121 0 -66 3 -82 21 -99 23 -23 88
-36 129 -26 30 8 65 40 65 61 0 17 -75 22 -85 5 -10 -16 -42 -12 -49 6 -12 31
-5 34 64 34 l70 0 0 48 c0 26 -6 55 -14 64 -25 34 -103 48 -151 28z"/>
<path d="M5340 230 l0 -130 40 0 40 0 0 88 c0 94 7 116 36 110 17 -3 19 -15
22 -101 l3 -97 39 0 39 0 3 97 c3 86 5 98 22 101 29 6 36 -16 36 -110 l0 -88
40 0 40 0 0 105 c0 100 -1 107 -26 132 -23 23 -31 25 -72 19 -55 -8 -56 -8
-103 0 -20 3 -46 1 -58 -5 -14 -8 -21 -8 -21 -1 0 5 -18 10 -40 10 l-40 0 0
-130z"/>
<path d="M5784 350 c-21 -8 -54 -46 -54 -62 0 -12 85 -9 97 3 14 14 43 5 43
-14 0 -10 -17 -16 -52 -20 -37 -5 -58 -13 -70 -28 -21 -25 -23 -78 -5 -103 16
-22 91 -33 112 -16 10 9 15 9 15 1 0 -6 17 -11 40 -11 l40 0 0 103 c-1 106 -6
124 -47 145 -25 14 -88 15 -119 2z"/>
<path d="M5990 230 l0 -130 40 0 40 0 0 130 0 130 -40 0 -40 0 0 -130z"/>
<path d="M6143 341 c-27 -17 -33 -27 -33 -54 0 -41 22 -63 80 -80 24 -7 45
-18 48 -25 6 -18 -28 -27 -49 -14 -10 7 -34 12 -53 12 -29 0 -33 -3 -29 -19
10 -39 42 -56 103 -56 48 0 63 4 84 24 49 46 26 99 -54 126 -29 10 -50 23 -50
31 0 16 36 19 45 4 3 -5 23 -10 45 -10 33 0 37 3 33 19 -14 55 -111 79 -170
42z"/>
<path d="M6514 346 c-28 -13 -44 -33 -44 -57 0 -12 77 -12 85 1 14 23 55 4 55
-25 0 -1 -23 -5 -50 -7 -66 -7 -90 -29 -90 -84 0 -33 5 -46 22 -58 26 -18 71
-21 99 -6 13 7 19 7 19 0 0 -5 18 -10 40 -10 l40 0 0 99 c0 90 -2 103 -23 127
-28 32 -104 43 -153 20z"/>
<path d="M6870 340 c-17 -17 -20 -33 -20 -110 0 -78 3 -93 21 -111 18 -18 30
-20 70 -17 50 5 58 -2 39 -32 -8 -12 -13 -13 -30 -3 -19 13 -100 18 -100 7 0
-3 5 -14 10 -25 30 -55 144 -65 187 -14 22 25 23 34 23 176 l0 149 -40 0 c-22
0 -40 -5 -40 -10 0 -7 -6 -7 -19 0 -31 16 -79 12 -101 -10z"/>
<path d="M7110 259 c0 -95 9 -135 33 -151 6 -4 50 -7 99 -7 l88 0 0 130 0 129
-40 0 -39 0 -3 -97 c-3 -86 -5 -98 -22 -101 -29 -6 -36 16 -36 111 l0 87 -40
0 -40 0 0 -101z"/>
<path d="M7380 230 l0 -130 35 0 35 0 0 88 c0 94 7 116 36 110 17 -3 19 -15
22 -101 l3 -97 39 0 39 0 3 97 c3 86 5 98 22 101 29 6 36 -16 36 -110 l0 -88
40 0 40 0 0 109 c0 107 -1 110 -27 131 -22 17 -36 20 -68 16 -51 -8 -62 -8
-106 0 -21 3 -46 1 -58 -5 -14 -8 -21 -8 -21 -1 0 5 -16 10 -35 10 l-35 0 0
-130z"/>
<path d="M7814 350 c-21 -8 -54 -46 -54 -62 0 -12 85 -9 97 3 15 15 43 4 43
-16 0 -10 -10 -15 -29 -15 -72 0 -111 -34 -111 -95 0 -48 94 -87 128 -53 9 9
12 9 12 0 0 -7 16 -12 40 -12 l40 0 0 99 c0 55 -3 107 -6 116 -15 37 -106 57
-160 35z"/>
<path d="M8191 346 c-14 -7 -28 -22 -32 -32 -11 -27 -11 -139 0 -167 21 -55
144 -63 188 -12 33 37 29 45 -22 45 -25 0 -45 -5 -45 -11 0 -6 -10 -9 -22 -7
-19 2 -24 10 -26 47 -5 61 4 91 27 91 10 0 21 -7 25 -15 3 -10 19 -15 46 -15
38 0 41 2 35 23 -13 42 -41 60 -97 64 -34 2 -62 -2 -77 -11z"/>
<path d="M8435 349 c-38 -22 -45 -41 -45 -121 0 -64 3 -81 20 -98 25 -25 61
-34 111 -27 68 9 79 27 79 127 0 74 -3 90 -20 105 -24 22 -116 31 -145 14z"/>
<path d="M8650 230 l0 -130 35 0 35 0 0 130 0 130 -35 0 -35 0 0 -130z"/>
<path d="M8820 353 c-28 -10 -60 -46 -60 -68 0 -33 21 -53 75 -74 55 -21 74
-51 31 -51 -14 0 -26 5 -26 10 0 6 -18 10 -40 10 -22 0 -40 -4 -40 -9 0 -59
101 -92 170 -56 34 17 47 55 34 94 -7 20 -22 30 -67 45 -33 10 -57 24 -57 32
0 16 36 19 45 4 6 -10 85 -15 85 -5 0 18 -26 55 -47 64 -25 11 -77 13 -103 4z"/>
<path d="M9045 349 c-25 -15 -45 -39 -45 -56 0 -16 76 -18 85 -3 10 16 42 12
49 -6 9 -24 9 -24 -28 -24 -40 0 -87 -16 -98 -33 -4 -7 -8 -31 -8 -54 0 -32 5
-46 22 -57 26 -18 71 -21 99 -6 13 7 19 7 19 0 0 -5 18 -10 41 -10 l41 0 -4
105 c-3 92 -6 107 -25 126 -25 26 -116 37 -148 18z"/>
</g>
</svg>
