<?xml version="1.0" encoding="UTF-8"?>
<svg version="1.1" xmlns="http://www.w3.org/2000/svg" width="30" height="30">
<path d="M0 0 C1.4238485 -0.00374361 2.84769495 -0.00834795 4.2715382 -0.01373065 C8.15690276 -0.02588851 12.04218076 -0.02570875 15.92755997 -0.02334189 C20.12885413 -0.02293188 24.33012122 -0.03399047 28.53140259 -0.04345703 C36.75294543 -0.060029 44.97445959 -0.06556488 53.19601775 -0.06668179 C59.88420169 -0.06763419 66.57237622 -0.07175407 73.26055717 -0.07808304 C92.25117522 -0.09568607 111.24177071 -0.10492353 130.23239697 -0.10342209 C131.25494898 -0.10334218 132.27750099 -0.10326227 133.33103943 -0.10317993 C134.35485004 -0.10309817 135.37866064 -0.10301641 136.43349581 -0.10293217 C153.01378229 -0.10211982 169.5939778 -0.121247 186.17423797 -0.14945666 C203.22656672 -0.17823893 220.27885119 -0.19199398 237.33120483 -0.19026911 C246.89354702 -0.18960699 256.45579388 -0.19502077 266.01811409 -0.21662521 C274.16184989 -0.2349076 282.30544716 -0.23912684 290.44919468 -0.22560637 C294.59731888 -0.21911176 298.74517785 -0.21883105 302.89327621 -0.23631287 C333.48277748 -0.35705764 359.86285925 2.55964058 382.91282654 24.95492554 C401.6422742 43.92265357 407.8278081 68.1734298 407.79653931 94.16322327 C407.79841006 95.56344581 407.80071181 96.96366783 407.80340463 98.36388904 C407.80949645 102.19306741 407.80939213 106.02222387 407.80821025 109.85140598 C407.80800558 113.98857193 407.81353136 118.12573097 407.81826782 122.26289368 C407.8265607 130.36171085 407.82932205 138.46052074 407.8298802 146.55934181 C407.83035603 153.1455835 407.83241414 159.7318228 407.83558083 166.31806374 C407.84438389 185.00873199 407.84900078 203.69939451 407.84825035 222.39006486 C407.84819042 223.90028247 407.84819042 223.90028247 407.84812927 225.44100952 C407.84808839 226.44905668 407.84804751 227.45710385 407.84800539 228.49569789 C407.84759908 244.82659007 407.85716579 261.15745918 407.87126764 277.48834469 C407.88564723 294.27390306 407.89253694 311.05945019 407.89167386 327.84501487 C407.89134243 337.26191261 407.89406603 346.67878616 407.90485191 356.09567833 C407.91397778 364.11438097 407.91611509 372.13304845 407.90934249 380.15175404 C407.90608772 384.23853834 407.90598267 388.32525528 407.91469574 392.41203308 C407.92260814 396.16202123 407.92108146 399.91188913 407.91241161 403.66187451 C407.91017139 405.64238234 407.9176679 407.62289405 407.92565125 409.60338706 C407.83593339 433.1444747 401.58194673 454.46352791 385.66282654 472.26742554 C384.92419373 473.10015991 384.18556091 473.93289429 383.42454529 474.79086304 C368.891471 490.25158036 349.11211914 498.93001546 328.02595139 500.54617572 C324.28911251 500.64954898 320.56265919 500.66773411 316.82444763 500.64837646 C315.39500765 500.65184363 313.96557036 500.65661523 312.53613853 500.6625582 C308.6539688 500.67495267 304.77202347 500.66895128 300.88985348 500.65959954 C296.68527733 500.6527614 292.48073754 500.66331369 288.27616882 500.67153931 C280.05749583 500.68482839 271.83890537 500.68202052 263.62022924 500.67330138 C256.9364031 500.66650616 250.25259997 500.66561604 243.56877136 500.66887283 C242.13790367 500.66956238 242.13790367 500.66956238 240.67812955 500.67026586 C238.73983653 500.67122511 236.80154351 500.67219775 234.86325049 500.67318363 C216.71884079 500.6817234 198.57447668 500.67192563 180.43007445 500.65578254 C164.88589088 500.64238065 149.34177453 500.64470914 133.79759216 500.65853882 C115.71488401 500.67461966 97.63221573 500.68089955 79.54950142 500.67170203 C77.61862819 500.67074645 75.68775496 500.66980334 73.75688171 500.66887283 C72.33211173 500.66817859 72.33211173 500.66817859 70.87855852 500.66747033 C64.2083918 500.66488795 57.53825054 500.66923517 50.86808777 500.67631149 C42.73132681 500.68475457 34.59465259 500.6823876 26.45790148 500.66646926 C22.31219495 500.65862417 18.16663266 500.65543015 14.02092743 500.66541672 C10.21617123 500.67444287 6.41169119 500.66930252 2.60695958 500.65348406 C0.5996434 500.64861523 -1.40769239 500.65826134 -3.41498756 500.66865575 C-28.0218994 500.51161968 -49.67737944 491.34077656 -67.33717346 474.26742554 C-84.24159034 456.4793039 -90.66719821 433.89752123 -90.59786987 409.83413696 C-90.60089595 408.3999012 -90.6047877 406.96566706 -90.60946244 405.53143573 C-90.61969265 401.6174719 -90.61757339 397.70360019 -90.61328185 393.78962898 C-90.6108055 389.55772046 -90.61984009 385.32583359 -90.62731934 381.09393311 C-90.64004364 372.81323465 -90.64186282 364.53256866 -90.63951907 356.25186208 C-90.63773304 349.51740949 -90.63949167 342.78296673 -90.64374352 336.04851532 C-90.6443387 335.08851084 -90.64493389 334.12850636 -90.64554712 333.13941084 C-90.64675893 331.18887768 -90.64797306 329.23834452 -90.64918949 327.28781137 C-90.66005651 309.01085496 -90.65790664 290.73391702 -90.65180465 272.45695958 C-90.64663751 255.75826471 -90.65788708 239.05962822 -90.67690287 222.3609449 C-90.69630316 205.1922403 -90.70453335 188.02356329 -90.70077962 170.85484767 C-90.69887074 161.22499212 -90.70132447 151.59518623 -90.71549416 141.96533966 C-90.72743695 133.76627132 -90.72878051 125.56728319 -90.71670399 117.36821368 C-90.71083531 113.19012705 -90.70965976 109.01218694 -90.72170639 104.83411026 C-90.73263332 100.99959467 -90.72938197 97.16534673 -90.71544471 93.3308433 C-90.71158374 91.30742538 -90.722289 89.28399525 -90.73374158 87.26060605 C-90.59001344 62.62356424 -81.4338374 40.95133324 -64.33717346 23.26742554 C-46.58215319 6.39446556 -24.02320673 -0.05714877 0 0 Z " fill="#F08409" transform="translate(97.33717346191406,5.732574462890625)"/>
<path d="M0 0 C0.99291057 -0.00551503 0.99291057 -0.00551503 2.00587994 -0.01114148 C4.24099326 -0.02222096 6.47606016 -0.02602959 8.7111969 -0.02983093 C10.30773569 -0.03609322 11.90427301 -0.0427398 13.50080872 -0.04974365 C18.76567052 -0.07084401 24.03053277 -0.08116306 29.29542542 -0.09111023 C31.11056598 -0.09515791 32.92570638 -0.09927484 34.74084663 -0.10346031 C43.28278525 -0.12253827 51.82471518 -0.13675435 60.36667103 -0.14507228 C70.1977615 -0.1548044 80.02862438 -0.18100673 89.85963482 -0.22157317 C97.47091551 -0.25188987 105.08213166 -0.26655646 112.69347149 -0.26985329 C117.23139308 -0.27218946 121.76907235 -0.28095825 126.30692863 -0.30631447 C130.59238484 -0.32986833 134.87744406 -0.33372079 139.16294861 -0.32355309 C140.72119543 -0.32306389 142.27946359 -0.32919818 143.83764839 -0.34310913 C168.98439956 -0.55470947 191.68662148 7.05423703 209.98683167 24.83467102 C228.71627933 43.80239905 234.90181322 68.05317529 234.87054443 94.04296875 C234.87241518 95.44319129 234.87471694 96.84341332 234.87740976 98.24363452 C234.88350157 102.0728129 234.88339726 105.90196935 234.88221538 109.73115146 C234.88201071 113.86831742 234.88753649 118.00547646 234.89227295 122.14263916 C234.90056582 130.24145633 234.90332718 138.34026623 234.90388533 146.43908729 C234.90436116 153.02532899 234.90641927 159.61156828 234.90958595 166.19780922 C234.91838901 184.88847747 234.9230059 203.57914 234.92225548 222.26981034 C234.92221552 223.27662208 234.92217557 224.28343382 234.9221344 225.320755 C234.92209352 226.32880217 234.92205264 227.33684933 234.92201052 228.37544338 C234.92160421 244.70633556 234.93117092 261.03720467 234.94527277 277.36809018 C234.95965235 294.15364854 234.96654207 310.93919567 234.96567899 327.72476035 C234.96534755 337.14165809 234.96807116 346.55853164 234.97885704 355.97542381 C234.9879829 363.99412645 234.99012021 372.01279393 234.98334762 380.03149953 C234.98009285 384.11828382 234.97998779 388.20500076 234.98870087 392.29177856 C234.99661327 396.04176671 234.99508658 399.79163461 234.98641673 403.54161999 C234.98417652 405.52212783 234.99167302 407.50263953 234.99965638 409.48313254 C234.90993851 433.02422019 228.65595185 454.3432734 212.73683167 472.14717102 C211.99819885 472.9799054 211.25956604 473.81263977 210.49855042 474.67060852 C196.07884463 490.01072106 175.79569657 499.35384846 154.71782112 500.41885948 C150.41026412 500.54798514 146.10449223 500.51954928 141.79566956 500.48774719 C140.15801001 500.48689851 138.52034932 500.48738076 136.88269043 500.48907471 C132.48692162 500.48992668 128.09140423 500.4724321 123.69569325 500.45135283 C119.08331571 500.43245115 114.47093081 500.43082506 109.85852051 500.42727661 C101.14663721 500.41799543 92.43486842 500.39343548 83.72303528 500.36322814 C71.93494115 500.32325157 60.14681517 500.30719748 48.35867023 500.28972149 C29.81797181 500.26161103 11.27751487 500.20181554 -7.26316833 500.14717102 C-7.26316833 468.13717102 -7.26316833 436.12717102 -7.26316833 403.14717102 C-9.24316833 402.81717102 -11.22316833 402.48717102 -13.26316833 402.14717102 C-13.36231794 396.56047194 -13.43476938 390.97428917 -13.4828949 385.38691711 C-13.50296463 383.48773777 -13.53022685 381.58861987 -13.56492615 379.68965149 C-13.61364943 376.95398263 -13.63618341 374.21913331 -13.65379333 371.48310852 C-13.67443848 370.63912506 -13.69508362 369.7951416 -13.71635437 368.92558289 C-13.71840583 363.4909345 -12.84432885 360.48002562 -9.26316833 356.14717102 C-8.60316833 355.48717102 -7.94316833 354.82717102 -7.26316833 354.14717102 C-6.97030573 351.67948746 -6.97030573 351.67948746 -7.03611755 348.77949524 C-7.03626862 347.65848419 -7.03641968 346.53747314 -7.03657532 345.38249207 C-7.05205917 343.56057846 -7.05205917 343.56057846 -7.06785583 341.70185852 C-7.07068573 340.4617099 -7.07351563 339.22156128 -7.07643127 337.9438324 C-7.08574659 334.6459247 -7.10371944 331.3482113 -7.12583923 328.05036926 C-7.1462936 324.68552532 -7.1554321 321.32065295 -7.16551208 317.95576477 C-7.18760315 311.35282379 -7.22110351 304.75001331 -7.26316833 298.14717102 C-4.33988334 298.73560199 -3.2563482 299.15307197 -0.91551208 301.17842102 C2.34785215 303.600712 4.15120108 303.68508038 8.17433167 303.64717102 C9.2661676 303.65748352 10.35800354 303.66779602 11.48292542 303.67842102 C16.91321096 302.79184379 19.79376373 300.4572619 22.97511292 296.03779602 C23.68126759 294.8327767 24.37205344 293.6186538 25.04933167 292.39717102 C25.42324036 291.7439386 25.79714905 291.09070618 26.18238831 290.41767883 C26.97121079 289.03629434 27.75456508 287.65177454 28.5327301 286.26435852 C29.73505419 284.15029638 30.98261112 282.06979442 32.24464417 279.99092102 C33.05527009 278.62677127 33.86518714 277.26219998 34.67433167 275.89717102 C35.05178528 275.2851886 35.42923889 274.67320618 35.81813049 274.04267883 C38.93020003 268.67121986 39.89326107 263.25554464 40.73683167 257.14717102 C41.79595764 257.13782532 42.85508362 257.12847961 43.94630432 257.11885071 C47.89399018 257.07883253 51.84090637 257.01304192 55.7881012 256.93965149 C57.49307837 256.91151015 59.19818435 256.89026167 60.90333557 256.87617493 C63.36152255 256.85464965 65.81817215 256.80795402 68.27589417 256.75654602 C69.03238251 256.75531738 69.78887085 256.75408875 70.56828308 256.75282288 C75.71336257 256.61197216 78.62313418 255.47953435 82.73683167 252.14717102 C86.82140352 247.74013296 87.34634102 244.0413469 87.12745667 238.25654602 C86.54438269 233.61527721 85.26703768 229.29069509 83.86964417 224.83467102 C82.35897459 219.91718109 81.21442986 214.92395542 80.05714417 209.91279602 C78.29316246 204.88179494 75.60241041 200.62131725 72.73683167 196.14717102 C73.38756653 195.50690979 74.03830139 194.86664856 74.70875549 194.20698547 C77.13374252 191.81619892 79.55407327 189.42088626 81.97145081 187.02241516 C83.01618585 185.98770233 84.0627135 184.95479606 85.11109924 183.92378235 C86.62267328 182.43662328 88.12755985 180.942964 89.63136292 179.44795227 C90.53733215 178.55245667 91.44330139 177.65696106 92.37672424 176.73432922 C96.08742985 172.66664045 98.18495225 169.39029272 98.36183167 163.83467102 C98.4430426 162.5101593 98.4430426 162.5101593 98.52589417 161.15888977 C96.65416425 154.01481174 90.910175 150.0085322 84.79542542 146.40888977 C82.59717321 145.20136211 80.38986919 144.01018336 78.17433167 142.83467102 C77.06380432 142.22816711 75.95327698 141.62166321 74.80909729 140.9967804 C71.79600241 139.35770006 68.77611336 137.73712844 65.73683167 136.14717102 C64.79202942 135.60939026 63.84722717 135.0716095 62.87379456 134.51753235 C59.05018726 132.84721499 55.88176262 132.50449265 51.73683167 132.14717102 C51.72748596 131.05775208 51.71814026 129.96833313 51.70851135 128.84590149 C51.66850185 124.78641048 51.60271338 120.72766861 51.52931213 116.6686554 C51.50116583 114.9151729 51.47991981 113.16156503 51.46583557 111.40791321 C51.4443174 108.88024503 51.39762465 106.35407418 51.34620667 103.82685852 C51.34497803 103.0484964 51.34374939 102.27013428 51.34248352 101.46818542 C51.20430692 96.28049367 50.23224865 93.21215037 46.73683167 89.14717102 C41.20829877 84.85859289 35.42795922 85.52143991 28.73683167 86.14717102 C23.64444564 87.13129483 18.71049079 88.49728206 13.73683167 89.95967102 C12.44164118 90.32107042 11.14606837 90.68110253 9.85011292 91.03974915 C4.32413818 92.61323725 -0.36186274 94.12631151 -5.26316833 97.14717102 C-5.92316833 97.14717102 -6.58316833 97.14717102 -7.26316833 97.14717102 C-7.28628977 84.64760002 -7.3040824 72.14803407 -7.31498051 59.64844608 C-7.32020977 53.84503489 -7.32730821 48.04163827 -7.33860779 42.23823547 C-7.34943512 36.64266249 -7.35544484 31.04710357 -7.35804558 25.45152092 C-7.35990011 23.31158158 -7.36352124 21.17164306 -7.36889839 19.03170967 C-7.37610678 16.04552136 -7.37715936 13.05939195 -7.37669373 10.07319641 C-7.380289 9.17912079 -7.38388428 8.28504517 -7.3875885 7.36387634 C-7.37525206 0.10259084 -7.15455267 0.02564001 0 0 Z " fill="#ED7307" transform="translate(270.26316833496094,5.8528289794921875)"/>
<path d="M0 0 C-0.33 116.49 -0.66 232.98 -1 353 C-2.65 353 -4.3 353 -6 353 C-5.88534579 355.22972273 -5.75785234 357.45878753 -5.625 359.6875 C-5.55539063 360.92886719 -5.48578125 362.17023438 -5.4140625 363.44921875 C-4.94780526 367.44759452 -4.40044746 370.70727927 -1.375 373.5 C0 375 0 375 0.5 377.3125 C0 380 0 380 -2.48046875 382.64453125 C-5.66317962 386.33123748 -5.77402183 389.64646039 -5.8125 394.375 C-5.83763672 395.11105469 -5.86277344 395.84710938 -5.88867188 396.60546875 C-5.94703593 398.40308149 -5.97650538 400.2015935 -6 402 C-4.02 402 -2.04 402 0 402 C-0.33 434.34 -0.66 466.68 -1 500 C-38.50317058 500 -66.48867766 499.6309395 -93 474 C-109.90441687 456.21187836 -116.33002475 433.6300957 -116.26069641 409.56671143 C-116.26372248 408.13247567 -116.26761424 406.69824152 -116.27228898 405.26401019 C-116.28251919 401.35004637 -116.28039993 397.43617465 -116.27610838 393.52220345 C-116.27363203 389.29029492 -116.28266662 385.05840805 -116.29014587 380.82650757 C-116.30287018 372.54580912 -116.30468936 364.26514313 -116.30234561 355.98443654 C-116.30055958 349.24998396 -116.3023182 342.51554119 -116.30657005 335.78108978 C-116.30716524 334.8210853 -116.30776043 333.86108083 -116.30837366 332.8719853 C-116.30958546 330.92145214 -116.3107996 328.97091899 -116.31201603 327.02038583 C-116.32288305 308.74342942 -116.32073318 290.46649148 -116.31463119 272.18953404 C-116.30946405 255.49083917 -116.32071362 238.79220268 -116.33972941 222.09351936 C-116.3591297 204.92481477 -116.36735988 187.75613775 -116.36360615 170.58742213 C-116.36169727 160.95756659 -116.36415101 151.3277607 -116.37832069 141.69791412 C-116.39026349 133.49884578 -116.39160705 125.29985765 -116.37953053 117.10078815 C-116.37366185 112.92270151 -116.3724863 108.7447614 -116.38453293 104.56668472 C-116.39545986 100.73216913 -116.39220851 96.89792119 -116.37827124 93.06341776 C-116.37441028 91.03999984 -116.38511553 89.01656971 -116.39656812 86.99318051 C-116.25283998 62.3561387 -107.09666394 40.68390771 -90 23 C-64.4264207 -1.30309699 -34.6163399 0 0 0 Z " fill="#F28D0B" transform="translate(123,6)"/>
<path d="M0 0 C0.93328125 -0.03738281 1.8665625 -0.07476562 2.828125 -0.11328125 C8.75059875 0.74975303 12.86134829 5.17830938 16.9296875 9.296875 C17.8578125 10.23144531 18.7859375 11.16601562 19.7421875 12.12890625 C20.70323683 13.10666093 21.66417296 14.08452688 22.625 15.0625 C23.6089068 16.05645327 24.59327783 17.04994722 25.578125 18.04296875 C27.97334794 20.46167427 30.36376276 22.88493438 32.75 25.3125 C35.27089761 24.0663686 37.7378329 22.77226144 40.20703125 21.421875 C45.70819988 18.67955834 51.52219016 17.15679404 57.4375 15.5625 C58.53255859 15.24667969 59.62761719 14.93085937 60.75585938 14.60546875 C69.30581958 12.28052371 78.96578384 10.13022596 87.3125 13.9375 C91.12432443 17.65158534 93.93074426 20.94170731 94.20410156 26.39013672 C94.20347547 27.92429943 94.18130256 29.45856402 94.140625 30.9921875 C94.13496521 31.80495148 94.12930542 32.61771545 94.12347412 33.45510864 C94.10120838 36.03318945 94.05103315 38.60984431 94 41.1875 C93.9799222 42.94268816 93.96167367 44.69789826 93.9453125 46.453125 C93.90137612 50.74012689 93.83241911 55.02607227 93.75 59.3125 C95.01424805 59.29413086 96.27849609 59.27576172 97.58105469 59.25683594 C103.8538987 59.16569342 108.43200534 62.27628839 113.75 65.3125 C114.53648926 65.75239258 115.32297852 66.19228516 116.13330078 66.64550781 C118.78881406 68.13876457 121.42729577 69.65871595 124.0625 71.1875 C124.91038086 71.66864258 125.75826172 72.14978516 126.63183594 72.64550781 C132.98824003 76.41532322 139.38231374 80.86901276 141.64453125 88.21875 C141.61746094 89.0746875 141.59039062 89.930625 141.5625 90.8125 C141.56894531 91.6684375 141.57539063 92.524375 141.58203125 93.40625 C139.14136009 101.93141123 130.99765372 108.30971751 124.875 114.3125 C123.99585938 115.18261719 123.11671875 116.05273438 122.2109375 116.94921875 C120.0618143 119.07498191 117.90814069 121.19589889 115.75 123.3125 C116.3529187 124.22020142 116.3529187 124.22020142 116.96801758 125.14624023 C120.76695222 131.1184574 122.98443153 136.47426521 124.4375 143.375 C124.81281812 145.05419143 125.19170726 146.73258881 125.57421875 148.41015625 C125.75831299 149.22460205 125.94240723 150.03904785 126.13208008 150.87817383 C126.75563491 153.33469902 127.52822266 155.68738685 128.3671875 158.078125 C130.14020248 163.22750343 130.50570167 167.90503474 129.75 173.3125 C127.29432448 178.31480198 123.7529693 181.81101535 118.75 184.3125 C116.05106819 184.39925538 113.37830769 184.42807897 110.6796875 184.41015625 C109.88345978 184.4087413 109.08723206 184.40732635 108.26687622 184.40586853 C105.7195462 184.40026345 103.17230353 184.38771014 100.625 184.375 C98.89974085 184.36998565 97.17448033 184.36542263 95.44921875 184.36132812 C91.21611209 184.35029237 86.98307086 184.33302436 82.75 184.3125 C82.78287109 185.36993408 82.81574219 186.42736816 82.84960938 187.5168457 C82.6063915 196.78475808 76.91448217 204.88788274 72.25 212.625 C71.68152344 213.58728516 71.11304688 214.54957031 70.52734375 215.54101562 C62.79025308 228.5109646 62.79025308 228.5109646 56.75 231.3125 C53.69921875 231.8515625 53.69921875 231.8515625 50.4375 231.9375 C48.83455078 232.01871094 48.83455078 232.01871094 47.19921875 232.1015625 C38.11126091 230.02255063 31.31117383 219.67552494 25.31054688 213.01367188 C24.29637695 211.91055664 24.29637695 211.91055664 23.26171875 210.78515625 C22.65803467 210.11750244 22.05435059 209.44984863 21.43237305 208.76196289 C19.74130908 206.98614112 19.74130908 206.98614112 16.75 207.3125 C14.80971998 208.30176509 14.80971998 208.30176509 12.7578125 209.61328125 C7.58695678 212.58165795 2.38123821 214.06290906 -3.375 215.5 C-5.27348739 215.99329761 -7.17192602 216.48678294 -9.0703125 216.98046875 C-9.96274658 217.20702148 -10.85518066 217.43357422 -11.7746582 217.66699219 C-13.90447013 218.22239437 -16.00703062 218.82746705 -18.11328125 219.46484375 C-23.95698089 221.04402535 -29.1470955 221.36395225 -34.625 218.625 C-38.17034678 215.50171832 -40.74393863 212.83068411 -42.25 208.3125 C-42.33507079 205.5809044 -42.36591565 202.87558557 -42.34765625 200.14453125 C-42.3462413 199.34971848 -42.34482635 198.5549057 -42.34336853 197.73600769 C-42.33777378 195.19896675 -42.32522228 192.66201425 -42.3125 190.125 C-42.30748432 188.40429815 -42.30292153 186.68359492 -42.29882812 184.96289062 C-42.28780607 180.7460597 -42.27054506 176.52929484 -42.25 172.3125 C-43.31959961 172.33393066 -44.38919922 172.35536133 -45.49121094 172.37744141 C-55.20382451 172.20963449 -62.91662933 166.86940342 -71 161.9375 C-72.10988281 161.2775 -73.21976563 160.6175 -74.36328125 159.9375 C-80.7209733 156.09687256 -86.06059848 152.59660228 -90.25 146.3125 C-90.69140625 143.67578125 -90.69140625 143.67578125 -90.8125 140.625 C-90.87566406 139.63113281 -90.93882812 138.63726562 -91.00390625 137.61328125 C-89.86136801 132.61097652 -86.79318679 129.89707063 -83.25 126.3125 C-82.50322998 125.54591064 -81.75645996 124.77932129 -80.98706055 123.98950195 C-78.61366352 121.57826425 -76.21744298 119.19225019 -73.8125 116.8125 C-72.98556641 115.99007812 -72.15863281 115.16765625 -71.30664062 114.3203125 C-69.29005041 112.31537887 -67.27114764 110.31283747 -65.25 108.3125 C-66.39640049 105.35128279 -67.61908204 102.54262626 -69.140625 99.7578125 C-75.31232322 87.53464395 -80.7883635 70.04832182 -78.25 56.3125 C-76.00246668 51.0982227 -72.42296758 48.46578135 -67.25 46.3125 C-64.37729391 45.81565503 -61.59972522 45.84195953 -58.69140625 45.921875 C-57.50767677 45.93036469 -57.50767677 45.93036469 -56.30003357 45.93902588 C-53.80354626 45.96124314 -51.30854625 46.01140781 -48.8125 46.0625 C-47.11004691 46.08258412 -45.40757111 46.10083153 -43.70507812 46.1171875 C-39.55282086 46.16105928 -35.40166172 46.22998092 -31.25 46.3125 C-31.27884277 45.23145996 -31.30768555 44.15041992 -31.33740234 43.03662109 C-31.23483236 38.66622316 -29.89704325 35.70066795 -27.875 31.9375 C-27.52066895 31.25776123 -27.16633789 30.57802246 -26.80126953 29.87768555 C-25.63937158 27.67671025 -24.44942721 25.49323354 -23.25 23.3125 C-22.83298828 22.54856934 -22.41597656 21.78463867 -21.98632812 20.99755859 C-20.71822931 18.69538985 -19.42734102 16.4079506 -18.125 14.125 C-17.73006348 13.41875488 -17.33512695 12.71250977 -16.92822266 11.98486328 C-12.9103406 5.11526091 -8.31222263 0.21575441 0 0 Z " fill="#FDF4EB" transform="translate(228.25,78.6875)"/>
<path d="M0 0 C7.42351041 4.35615715 13.77600534 11.10280953 16.52734375 19.40625 C18.27843783 29.01555964 18.48851666 39.62189046 13 48 C12.57589844 48.69351563 12.15179688 49.38703125 11.71484375 50.1015625 C6.6084529 57.69714109 -0.5869882 62.26418216 -9.40625 64.5234375 C-20.02195148 66.47391277 -28.55538372 64.27993689 -37.546875 58.30859375 C-44.40170463 52.79942698 -49.4296232 44.74682989 -51 36 C-51.81240078 26.17128231 -50.99493307 18.3527394 -45.01171875 10.3359375 C-33.03268586 -3.69132381 -17.14049092 -8.6238095 0 0 Z " fill="#EF800A" transform="translate(270,164)"/>
<path d="M0 0 C0.88141663 -0.01283524 1.76283325 -0.02567047 2.67095947 -0.03889465 C3.62613464 -0.04628159 4.58130981 -0.05366852 5.56542969 -0.0612793 C6.54719177 -0.06935104 7.52895386 -0.07742279 8.54046631 -0.08573914 C10.62184887 -0.09958597 12.70325419 -0.11030543 14.78466797 -0.11816406 C17.96072767 -0.1353542 21.13574042 -0.17923261 24.31152344 -0.22338867 C26.3336512 -0.23351754 28.35578781 -0.24203304 30.37792969 -0.2487793 C31.32500793 -0.26628738 32.27208618 -0.28379547 33.24786377 -0.30183411 C39.06777559 -0.28278929 42.27867881 0.35091933 46.73730469 4.17700195 C50.01584675 8.75745782 49.44634541 14.81980536 48.73730469 20.17700195 C46.84867815 24.11979202 43.81569992 26.67456939 39.73730469 28.17700195 C36.9464625 28.34558361 34.25958476 28.40984437 31.47167969 28.37231445 C30.67828186 28.36948456 29.88488403 28.36665466 29.06744385 28.36373901 C26.54057552 28.35256974 24.01406537 28.32747139 21.48730469 28.30200195 C19.77116398 28.29196794 18.05501771 28.28284282 16.33886719 28.2746582 C12.13820895 28.25264109 7.93781749 28.21813382 3.73730469 28.17700195 C3.73730469 25.86700195 3.73730469 23.55700195 3.73730469 21.17700195 C4.66067627 21.16241943 5.58404785 21.14783691 6.53540039 21.1328125 C9.96307673 21.07173887 13.38995131 20.99758586 16.81713867 20.91455078 C18.30010323 20.88130773 19.78319413 20.85327372 21.26635742 20.83056641 C23.39914762 20.79700727 25.53078081 20.74469558 27.66308594 20.6887207 C29.58761597 20.64944458 29.58761597 20.64944458 31.55102539 20.609375 C34.6785158 20.42652887 34.6785158 20.42652887 36.65991211 18.86767578 C38.4634443 16.03752386 38.03224238 13.42131658 37.73730469 10.17700195 C35.25295628 7.69265354 33.77088912 7.92143312 30.37817383 7.87345886 C29.65106201 7.87437027 28.9239502 7.87528168 28.17480469 7.8762207 C27.4277124 7.87193558 26.68062012 7.86765045 25.91088867 7.86323547 C24.33057672 7.85748982 22.75023832 7.85699365 21.16992188 7.86132812 C18.74661381 7.86448981 16.32452434 7.84102787 13.90136719 7.81567383 C12.36751457 7.81340108 10.83365865 7.81269722 9.29980469 7.8137207 C8.57269287 7.80451096 7.84558105 7.79530121 7.09643555 7.78581238 C4.83587126 7.77184282 4.83587126 7.77184282 1.73730469 8.17700195 C-1.44402766 12.94900047 -0.59086437 18.06748027 -0.57519531 23.67700195 C-0.59130859 24.83071289 -0.60742188 25.98442383 -0.62402344 27.1730957 C-0.62466797 28.27782227 -0.6253125 29.38254883 -0.62597656 30.52075195 C-0.62895752 31.53331055 -0.63193848 32.54586914 -0.63500977 33.58911133 C-0.46504052 36.15008328 -0.46504052 36.15008328 0.88456726 37.81646729 C3.53582584 39.76338602 5.48467218 39.54436248 8.75341797 39.53344727 C9.99125031 39.53644836 11.22908264 39.53944946 12.50442505 39.5425415 C13.85549333 39.53053764 15.20655743 39.51805474 16.55761719 39.50512695 C17.94098709 39.50206925 19.32436007 39.50019321 20.70773315 39.49945068 C23.60459197 39.49484993 26.50117243 39.4804307 29.39794922 39.45825195 C33.1184136 39.42991682 36.83865923 39.41903502 40.55922127 39.41456985 C43.41415613 39.41042194 46.26904642 39.40061062 49.12395859 39.38869476 C50.49634315 39.38298312 51.86873202 39.37822738 53.2411232 39.3744278 C55.15410164 39.3675847 57.067048 39.35305816 58.97998047 39.33813477 C60.07013458 39.33130676 61.1602887 39.32447876 62.28347778 39.31744385 C64.68296232 39.45319338 64.68296232 39.45319338 65.73730469 38.17700195 C65.85924401 36.17557374 65.91706983 34.17018031 65.94824219 32.1652832 C65.97660156 30.93229492 66.00496094 29.69930664 66.03417969 28.42895508 C66.08587298 25.82232087 66.13025698 23.21553049 66.16699219 20.60864258 C66.19792969 19.36920898 66.22886719 18.12977539 66.26074219 16.8527832 C66.28056152 15.71752197 66.30038086 14.58226074 66.32080078 13.41259766 C66.95067938 8.51940831 68.58142051 5.40116352 71.95678711 1.82641602 C75.58049435 -0.3231815 78.02853119 -0.28050838 82.22558594 -0.21362305 C82.92878464 -0.20796326 83.63198334 -0.20230347 84.35649109 -0.19647217 C86.58830717 -0.17419574 88.8184793 -0.12402177 91.04980469 -0.07299805 C92.5686616 -0.05292148 94.08754384 -0.03467273 95.60644531 -0.01831055 C99.31726014 0.02563838 103.02712179 0.09460274 106.73730469 0.17700195 C106.73730469 2.81700195 106.73730469 5.45700195 106.73730469 8.17700195 C98.15730469 8.50700195 89.57730469 8.83700195 80.73730469 9.17700195 C79.33092645 11.98975842 79.60970612 14.36228205 79.59667969 17.50512695 C79.56767578 19.41745117 79.56767578 19.41745117 79.53808594 21.3684082 C79.50919891 23.39392766 79.48730678 25.41835345 79.48681641 27.4440918 C79.46502237 40.16246905 79.46502237 40.16246905 76.37792969 44.03637695 C72.163382 47.45290377 68.89014006 47.31791475 63.60717773 47.36987305 C62.52370056 47.38213928 62.52370056 47.38213928 61.41833496 47.39465332 C59.02857281 47.41946005 56.63886986 47.43601078 54.24902344 47.45043945 C53.43182138 47.45576313 52.61461933 47.46108681 51.77265358 47.46657181 C47.44748498 47.49328236 43.12234504 47.51266427 38.79711914 47.52709961 C35.22068724 47.54044147 31.64482555 47.56830081 28.06860352 47.60913086 C23.74678746 47.65847058 19.42548877 47.68322198 15.10340309 47.69032669 C13.45877242 47.69703472 11.81415309 47.71224531 10.16968346 47.7362175 C7.86438451 47.76790678 5.5610756 47.76790146 3.25561523 47.76049805 C1.94562057 47.7685849 0.63562592 47.77667175 -0.71406555 47.78500366 C-5.37391022 46.98661282 -6.94857272 45.49002203 -10.26269531 42.17700195 C-13.5483111 36.33207691 -12.71140069 29.31641924 -12.76269531 22.80200195 C-12.80394531 21.50004883 -12.84519531 20.1980957 -12.88769531 18.85668945 C-12.97519836 8.13756671 -12.97519836 8.13756671 -9.35644531 3.82543945 C-6.2968568 0.89907907 -4.21501265 0.05341027 0 0 Z " fill="#BB110C" transform="translate(322.2626953125,359.822998046875)"/>
<path d="M0 0 C0.86124481 -0.0127597 1.72248962 -0.02551941 2.60983276 -0.03866577 C3.53281158 -0.04089142 4.45579041 -0.04311707 5.40673828 -0.04541016 C6.8418425 -0.05539536 6.8418425 -0.05539536 8.30593872 -0.06558228 C10.32828857 -0.07569907 12.35067174 -0.0803996 14.37304688 -0.08007812 C17.45905895 -0.08444718 20.54363579 -0.12076588 23.62939453 -0.15869141 C25.59683757 -0.16456066 27.56428739 -0.16852933 29.53173828 -0.17041016 C30.91013382 -0.19196671 30.91013382 -0.19196671 32.31637573 -0.21395874 C37.92749916 -0.17416077 41.14963712 0.54206988 45.60205078 4.29052734 C48.34151406 7.18057423 49.03330859 9.13923435 49.03955078 13.10302734 C48.86301247 18.30706977 47.79584857 21.17220914 44.60205078 25.29052734 C39.68674807 28.42981621 35.77157689 28.69874082 30.14111328 28.58349609 C29.35054535 28.57925125 28.55997742 28.57500641 27.74545288 28.57063293 C25.23896138 28.55394035 22.73329618 28.51630717 20.22705078 28.47802734 C18.52003121 28.46296826 16.81299893 28.449282 15.10595703 28.43701172 C10.93767354 28.40406791 6.77000189 28.35235227 2.60205078 28.29052734 C2.60205078 25.98052734 2.60205078 23.67052734 2.60205078 21.29052734 C3.55571533 21.28118164 4.50937988 21.27183594 5.49194336 21.26220703 C9.0314804 21.22232301 12.57014671 21.15657075 16.10913086 21.08300781 C17.64059256 21.05478857 19.17220017 21.03357866 20.70385742 21.01953125 C22.90635927 20.99811308 25.10710538 20.95147596 27.30908203 20.89990234 C27.99355911 20.89867371 28.67803619 20.89744507 29.383255 20.8961792 C32.53473558 20.79914729 34.20929727 20.65064462 36.57348633 18.48291016 C38.10954327 15.20880824 37.3822528 12.73641959 36.60205078 9.29052734 C34.6346345 7.32311106 30.82637348 8.12664528 28.13720703 8.12255859 C27.3886998 8.11923019 26.64019257 8.11590179 25.8690033 8.11247253 C24.28271094 8.10740042 22.69640788 8.1050643 21.11010742 8.10522461 C18.67820709 8.10303961 16.24676129 8.08489154 13.81494141 8.06591797 C12.27653151 8.06298385 10.73811944 8.06099918 9.19970703 8.06005859 C8.46945816 8.05287308 7.73920929 8.04568756 6.98683167 8.0382843 C2.83935085 7.92343301 2.83935085 7.92343301 -0.39794922 10.29052734 C-0.7095238 12.95932465 -0.7095238 12.95932465 -0.66357422 16.06787109 C-0.66615234 17.2209375 -0.66873047 18.37400391 -0.67138672 19.56201172 C-0.66365234 20.77179688 -0.65591797 21.98158203 -0.64794922 23.22802734 C-0.65568359 24.43394531 -0.66341797 25.63986328 -0.67138672 26.88232422 C-0.66880859 28.03667969 -0.66623047 29.19103516 -0.66357422 30.38037109 C-0.66131836 31.44118896 -0.6590625 32.50200684 -0.65673828 33.5949707 C-0.59087111 36.51317695 -0.59087111 36.51317695 1.60205078 39.29052734 C3.57195319 39.7647936 3.57195319 39.7647936 5.86816406 39.72290039 C6.74892609 39.74269455 7.62968811 39.76248871 8.53713989 39.78288269 C9.96532547 39.79246758 9.96532547 39.79246758 11.42236328 39.80224609 C12.39615936 39.8201973 13.36995544 39.8381485 14.3732605 39.85664368 C17.4911462 39.91093366 20.60887724 39.94470225 23.72705078 39.97802734 C25.83774948 40.01118391 27.94842772 40.045672 30.05908203 40.08154297 C35.2399329 40.16667042 40.42080335 40.2349407 45.60205078 40.29052734 C45.60205078 42.60052734 45.60205078 44.91052734 45.60205078 47.29052734 C38.59127197 47.39210112 31.58068354 47.46206595 24.56933594 47.51025391 C22.18514922 47.53034628 19.80101163 47.55762516 17.41699219 47.59228516 C13.9863674 47.64090593 10.55639523 47.66352046 7.12548828 47.68115234 C6.06276703 47.70179749 5.00004578 47.72244263 3.90512085 47.74371338 C-1.97656883 47.74548934 -5.9220281 47.54924132 -10.39794922 43.29052734 C-13.61557136 37.80908233 -12.76996791 31.1149025 -12.76855469 24.94335938 C-12.7729369 22.79656134 -12.80932149 20.65180723 -12.84716797 18.50537109 C-12.85303553 17.13168015 -12.85700533 15.75797953 -12.85888672 14.38427734 C-12.86710449 13.14355469 -12.87532227 11.90283203 -12.88378906 10.62451172 C-12.30585011 6.65851457 -11.23438149 5.07645379 -8.39794922 2.29052734 C-5.50638524 0.55586354 -3.35546089 0.03389626 0 0 Z " fill="#BB110C" transform="translate(59.39794921875,359.70947265625)"/>
<path d="M0 0 C7.15319672 -0.10156178 14.30620695 -0.17153366 21.45996094 -0.21972656 C23.89264881 -0.23982071 26.32528851 -0.26710088 28.7578125 -0.30175781 C32.25793355 -0.3503706 35.75741502 -0.37299139 39.2578125 -0.390625 C40.34240753 -0.41127014 41.42700256 -0.43191528 42.54446411 -0.45318604 C48.68519001 -0.45500384 52.3444954 -0.14628612 57 4 C60.28085648 8.58368935 59.70235573 14.63916235 59 20 C57.42684517 23.40633525 55.20613058 25.36713587 51.8605957 27.12255859 C48.05439594 28.29004873 44.36401946 28.35588727 40.41796875 28.4140625 C39.60378983 28.43342865 38.7896109 28.4527948 37.95075989 28.4727478 C35.36311148 28.53228752 32.77541797 28.57882583 30.1875 28.625 C28.42771551 28.6632034 26.66794926 28.7022565 24.90820312 28.7421875 C20.6055663 28.83955976 16.30311182 28.91932992 12 29 C11.67 35.27 11.34 41.54 11 48 C7.37 48 3.74 48 0 48 C-0.08164159 45.3118751 -0.14079668 42.626277 -0.1875 39.9375 C-0.21263672 39.18533203 -0.23777344 38.43316406 -0.26367188 37.65820312 C-0.33289266 32.32820247 0.50994364 28.73231585 3 24 C7.61146293 19.53729394 12.92843977 19.82085944 19.046875 19.68359375 C19.81807678 19.66281265 20.58927856 19.64203156 21.3838501 19.62062073 C23.83914572 19.55541428 26.29454521 19.49637516 28.75 19.4375 C30.41797935 19.39428726 32.08594832 19.3506721 33.75390625 19.30664062 C37.83583196 19.19976264 41.91786182 19.09841434 46 19 C47.67082039 16.03103721 47.67082039 16.03103721 47 8 C23.735 7.505 23.735 7.505 0 7 C0 4.69 0 2.38 0 0 Z " fill="#BC150C" transform="translate(191,360)"/>
<path d="M0 0 C3.18008574 1.32453853 5.77911741 3.30244834 8.5703125 5.296875 C11.60774232 7.19585912 14.78272519 8.48366195 18.08203125 9.8671875 C18.15619192 14.51192732 18.2106374 19.15632249 18.24682617 23.80151367 C18.26191219 25.38165286 18.28238375 26.96175019 18.30834961 28.54174805 C18.34474251 30.81309335 18.36175887 33.08388509 18.375 35.35546875 C18.39048386 36.06181961 18.40596771 36.76817047 18.42192078 37.4959259 C18.42359724 42.38236204 18.42359724 42.38236204 16.74438477 44.76586914 C14.2520835 46.41703245 11.69241778 47.14737566 8.83203125 47.9921875 C7.73375 48.32476562 6.63546875 48.65734375 5.50390625 49 C2.03673225 49.87866738 -1.37656184 50.38675592 -4.91796875 50.8671875 C-4.99393063 44.0862545 -5.04653125 37.3054309 -5.08276367 30.52416992 C-5.09786551 28.21651102 -5.11834844 25.90888089 -5.14428711 23.60131836 C-5.1806085 20.28752551 -5.19768111 16.97411158 -5.2109375 13.66015625 C-5.22642136 12.6256987 -5.24190521 11.59124115 -5.25785828 10.5254364 C-5.25808487 9.5646669 -5.25831146 8.6038974 -5.25854492 7.61401367 C-5.26520676 6.76796066 -5.27186859 5.92190765 -5.2787323 5.05021667 C-4.75738244 1.89545796 -3.37873295 -0.23396521 0 0 Z " fill="#BC1713" transform="translate(219.91796875,229.1328125)"/>
<path d="M0 0 C4.64473982 -0.07416067 9.28913499 -0.12860615 13.93432617 -0.16479492 C15.51446536 -0.17988094 17.09456269 -0.2003525 18.67456055 -0.22631836 C20.94590585 -0.26271126 23.21669759 -0.27972762 25.48828125 -0.29296875 C26.54780754 -0.31619453 26.54780754 -0.31619453 27.6287384 -0.33988953 C32.48892366 -0.34155698 32.48892366 -0.34155698 34.8828125 1.25830078 C36.1397313 3.21784159 36.78601592 4.91045546 37.38671875 7.16015625 C37.7105957 8.3502832 37.7105957 8.3502832 38.04101562 9.56445312 C38.36102539 10.80098633 38.36102539 10.80098633 38.6875 12.0625 C38.91244141 12.89072266 39.13738281 13.71894531 39.36914062 14.57226562 C41 20.66444244 41 20.66444244 41 23 C34.23750813 23.12673206 27.47532217 23.21432235 20.71191406 23.2746582 C18.4110164 23.29980906 16.11019868 23.33393396 13.80957031 23.37719727 C10.50305467 23.43782147 7.19759479 23.46620441 3.890625 23.48828125 C2.3466806 23.52699089 2.3466806 23.52699089 0.77154541 23.56648254 C-6.39692044 23.56930051 -6.39692044 23.56930051 -9.68066406 20.46948242 C-10.11604492 19.65455322 -10.55142578 18.83962402 -11 18 C-10.18595703 16.93072266 -10.18595703 16.93072266 -9.35546875 15.83984375 C-8.64003906 14.88207031 -7.92460937 13.92429688 -7.1875 12.9375 C-6.47980469 11.99777344 -5.77210938 11.05804688 -5.04296875 10.08984375 C-3.49675569 7.75130737 -2.42620735 5.8464648 -1.37231445 3.30688477 C-0.91945068 2.21561279 -0.46658691 1.12434082 0 0 Z " fill="#BC1714" transform="translate(298,210)"/>
<path d="M0 0 C0.12117188 0.96421875 0.24234375 1.9284375 0.3671875 2.921875 C0.61855469 4.81679687 0.61855469 4.81679687 0.875 6.75 C1.11863281 8.62945312 1.11863281 8.62945312 1.3671875 10.546875 C1.81023398 13.86901428 1.81023398 13.86901428 3.0703125 16.140625 C4.33687495 18.67374989 4.34324772 20.1822948 4 23 C2.19580078 25.38769531 2.19580078 25.38769531 -0.3046875 27.828125 C-1.19800781 28.70984375 -2.09132812 29.5915625 -3.01171875 30.5 C-3.95660156 31.4075 -4.90148437 32.315 -5.875 33.25 C-6.81214844 34.17296875 -7.74929687 35.0959375 -8.71484375 36.046875 C-16.66529744 43.82573616 -16.66529744 43.82573616 -20.6328125 44.34375 C-25.18880481 43.8786371 -28.08180023 41.94793706 -31.875 39.5 C-32.56335938 39.07074219 -33.25171875 38.64148438 -33.9609375 38.19921875 C-35.64812861 37.1447243 -37.32513264 36.07396075 -39 35 C-37.68085352 32.09273371 -36.24740014 29.98266069 -34.02246094 27.70019531 C-33.42133484 27.07985413 -32.82020874 26.45951294 -32.2008667 25.82037354 C-31.55192444 25.16293152 -30.90298218 24.5054895 -30.234375 23.828125 C-29.56335754 23.1457074 -28.89234009 22.46328979 -28.20098877 21.76019287 C-26.78152284 20.32186169 -25.35914716 18.88639711 -23.93408203 17.45361328 C-21.75772012 15.25778916 -19.60360543 13.04157905 -17.44921875 10.82421875 C-16.06642948 9.42837334 -14.68235667 8.03379805 -13.296875 6.640625 C-12.65602966 5.97508606 -12.01518433 5.30954712 -11.35491943 4.62384033 C-7.63749887 0.94277536 -5.52520922 -0.90142569 0 0 Z " fill="#BB1310" transform="translate(206,194)"/>
<path d="M0 0 C2.90726629 1.31914648 5.01733931 2.75259986 7.29980469 4.97753906 C7.92014587 5.57866516 8.54048706 6.17979126 9.17962646 6.7991333 C9.83706848 7.44807556 10.4945105 8.09701782 11.171875 8.765625 C11.8542926 9.43664246 12.53671021 10.10765991 13.23980713 10.79901123 C14.67813831 12.21847716 16.11360289 13.64085284 17.54638672 15.06591797 C19.74221084 17.24227988 21.95842095 19.39639457 24.17578125 21.55078125 C25.57162666 22.93357052 26.96620195 24.31764333 28.359375 25.703125 C29.02491394 26.34397034 29.69045288 26.98481567 30.37615967 27.64508057 C34.90632838 32.21999095 34.90632838 32.21999095 35.41503906 36.45605469 C35.27807617 37.29555664 35.14111328 38.13505859 35 39 C33.37191406 39.29003906 33.37191406 39.29003906 31.7109375 39.5859375 C30.26558332 39.84872917 28.82027312 40.11176286 27.375 40.375 C26.66214844 40.50132812 25.94929688 40.62765625 25.21484375 40.7578125 C24.16103516 40.95117188 24.16103516 40.95117188 23.0859375 41.1484375 C22.1276001 41.32125244 22.1276001 41.32125244 21.14990234 41.49755859 C18.36639183 42.14807695 15.7006464 43.0683947 13 44 C10.02439537 41.04909391 7.05207322 38.09493253 4.08276367 35.13769531 C3.07194415 34.13190797 2.06022938 33.12701952 1.04760742 32.12304688 C-0.40681856 30.68073517 -1.85800615 29.23523328 -3.30859375 27.7890625 C-4.18314209 26.91975098 -5.05769043 26.05043945 -5.95874023 25.15478516 C-8.27949673 22.70495896 -8.90931275 21.69458189 -9.34375 18.3671875 C-8.8786371 13.81119519 -6.94793706 10.91819977 -4.5 7.125 C-4.07074219 6.43664062 -3.64148438 5.74828125 -3.19921875 5.0390625 C-2.1447243 3.35187139 -1.07396075 1.67486736 0 0 Z " fill="#BB1310" transform="translate(219,108)"/>
<path d="M0 0 C0.07596188 6.780933 0.1285625 13.5617566 0.16479492 20.34301758 C0.17989676 22.65067648 0.20037969 24.95830661 0.22631836 27.26586914 C0.26263975 30.57966199 0.27971236 33.89307592 0.29296875 37.20703125 C0.30845261 38.2414888 0.32393646 39.27594635 0.33988953 40.3417511 C0.34011612 41.3025206 0.34034271 42.2632901 0.34057617 43.25317383 C0.34723801 44.09922684 0.35389984 44.94527985 0.36076355 45.81697083 C-0.08126379 48.4917382 -0.85408417 49.38984341 -3 51 C-3.66 51 -4.32 51 -5 51 C-5 50.34 -5 49.68 -5 49 C-5.52078125 48.74476563 -6.0415625 48.48953125 -6.578125 48.2265625 C-9.66517892 46.66311906 -12.70521658 45.01918305 -15.75 43.375 C-16.35199219 43.05015625 -16.95398438 42.7253125 -17.57421875 42.390625 C-19.04977297 41.59429415 -20.52492686 40.79722161 -22 40 C-22.07416067 35.35526018 -22.12860615 30.71086501 -22.16479492 26.06567383 C-22.17988094 24.48553464 -22.2003525 22.90543731 -22.22631836 21.32543945 C-22.26271126 19.05409415 -22.27972762 16.78330241 -22.29296875 14.51171875 C-22.30845261 13.80536789 -22.32393646 13.09901703 -22.33988953 12.3712616 C-22.34156391 7.49089147 -22.34156391 7.49089147 -20.68041992 5.10351562 C-18.0079325 3.3485188 -15.19429233 2.65931321 -12.125 1.8125 C-10.91070312 1.46832031 -9.69640625 1.12414062 -8.4453125 0.76953125 C-5.44135037 0.09857826 -3.0439873 -0.06408052 0 0 Z " fill="#BA100E" transform="translate(291,110)"/>
<path d="M0 0 C3.31716187 2.67034739 6.30701473 5.66493409 9.32885742 8.66308594 C10.80659791 10.11918435 12.31103875 11.5433784 13.81835938 12.96875 C14.75099609 13.88914063 15.68363281 14.80953125 16.64453125 15.7578125 C17.50409424 16.5945752 18.36365723 17.43133789 19.24926758 18.29345703 C21 21 21 21 20.88769531 24.59350586 C20.17881315 27.31381192 19.57936319 29.36772802 18.15234375 31.74609375 C17.79462891 32.35517578 17.43691406 32.96425781 17.06835938 33.59179688 C16.69517578 34.20087891 16.32199219 34.80996094 15.9375 35.4375 C15.56044922 36.07365234 15.18339844 36.70980469 14.79492188 37.36523438 C13.87359498 38.91632902 12.93823407 40.45907343 12 42 C9.15101954 40.70665553 7.10820567 39.35207334 4.91552734 37.12670898 C4.34168304 36.54948593 3.76783875 35.97226288 3.17660522 35.37754822 C2.56918488 34.75666824 1.96176453 34.13578827 1.3359375 33.49609375 C0.70265533 32.85761002 0.06937317 32.21912628 -0.58309937 31.56129456 C-2.60187989 29.52472625 -4.61383729 27.48158925 -6.625 25.4375 C-8.64416725 23.39072882 -10.66476901 21.34542734 -12.68832397 19.30299377 C-13.94648149 18.03256434 -15.20195639 16.75947158 -16.45449829 15.48350525 C-19.43156495 12.35670716 -19.43156495 12.35670716 -23 10 C-23 7.69 -23 5.38 -23 3 C-22.04738281 2.87882813 -21.09476563 2.75765625 -20.11328125 2.6328125 C-18.85902344 2.46523437 -17.60476563 2.29765625 -16.3125 2.125 C-15.07113281 1.96257812 -13.82976562 1.80015625 -12.55078125 1.6328125 C-9.07302939 1.14624139 -9.07302939 1.14624139 -6.29296875 -0.1328125 C-3.51192436 -1.18458738 -2.75105951 -1.05462439 0 0 Z " fill="#BA100E" transform="translate(276,239)"/>
<path d="M0 0 C2.72161709 0.7074683 4.77359249 1.30575705 7.15258789 2.7331543 C7.76166992 3.09086914 8.37075195 3.44858398 8.99829102 3.81713867 C9.60737305 4.19032227 10.21645508 4.56350586 10.84399414 4.94799805 C11.48014648 5.32504883 12.11629883 5.70209961 12.77172852 6.09057617 C14.32282316 7.01190307 15.86556757 7.94726398 17.40649414 8.88549805 C16.08734766 11.79276434 14.65389429 13.90283736 12.42895508 16.18530273 C11.52726593 17.11581451 11.52726593 17.11581451 10.60736084 18.06512451 C9.95841858 18.72256653 9.30947632 19.38000854 8.64086914 20.05737305 C7.96985168 20.73979065 7.29883423 21.42220825 6.60748291 22.12530518 C5.18801698 23.56363635 3.7656413 24.99910094 2.34057617 26.43188477 C0.16421426 28.62770889 -1.98990043 30.84391899 -4.14428711 33.0612793 C-5.52707638 34.45712471 -6.91114919 35.8517 -8.29663086 37.24487305 C-8.9374762 37.91041199 -9.57832153 38.57595093 -10.23858643 39.26165771 C-14.81349681 43.79182643 -14.81349681 43.79182643 -19.04956055 44.30053711 C-19.8890625 44.16357422 -20.72856445 44.02661133 -21.59350586 43.88549805 C-21.71467773 43.00506836 -21.83584961 42.12463867 -21.96069336 41.2175293 C-22.12827148 40.05608398 -22.29584961 38.89463867 -22.46850586 37.69799805 C-22.63092773 36.54944336 -22.79334961 35.40088867 -22.96069336 34.2175293 C-23.4572593 30.9377605 -23.4572593 30.9377605 -24.72631836 28.2722168 C-25.8265794 25.24402088 -25.54981485 23.9550591 -24.59350586 20.88549805 C-21.9811287 17.48669821 -18.96096679 14.50971001 -15.93041992 11.48120117 C-14.47220042 10.01421482 -13.04895963 8.51824891 -11.62475586 7.01831055 C-10.24416992 5.62612305 -10.24416992 5.62612305 -8.83569336 4.20581055 C-7.99893066 3.3526123 -7.16216797 2.49941406 -6.30004883 1.62036133 C-3.59350586 -0.11450195 -3.59350586 -0.11450195 0 0 Z " fill="#BA100E" transform="translate(322.593505859375,151.114501953125)"/>
<path d="M0 0 C6.780933 -0.07596188 13.5617566 -0.1285625 20.34301758 -0.16479492 C22.65067648 -0.17989676 24.95830661 -0.20037969 27.26586914 -0.22631836 C30.57966199 -0.26263975 33.89307592 -0.27971236 37.20703125 -0.29296875 C38.2414888 -0.30845261 39.27594635 -0.32393646 40.3417511 -0.33988953 C41.3025206 -0.34011612 42.2632901 -0.34034271 43.25317383 -0.34057617 C44.09922684 -0.34723801 44.94527985 -0.35389984 45.81697083 -0.36076355 C48.46203716 0.07635545 49.33536812 0.95440318 51 3 C49.38110508 7.42082844 47.1328224 10.8913922 44.4375 14.71875 C42.95197371 17.07621564 42.00124723 19.40664076 41 22 C36.35526018 22.07416067 31.71086501 22.12860615 27.06567383 22.16479492 C25.48553464 22.17988094 23.90543731 22.2003525 22.32543945 22.22631836 C20.05409415 22.26271126 17.78330241 22.27972762 15.51171875 22.29296875 C14.45219246 22.31619453 14.45219246 22.31619453 13.3712616 22.33988953 C8.48562277 22.34156571 8.48562277 22.34156571 6.10131836 20.66455078 C4.44117047 18.15537581 3.71863175 15.56714065 2.875 12.6875 C2.54242188 11.57761719 2.20984375 10.46773437 1.8671875 9.32421875 C1.05767051 6.22107028 0.50516235 3.16404259 0 0 Z " fill="#BA0F0D" transform="translate(168,157)"/>
<path d="M0 0 C0.70744354 0.00141495 1.41488708 0.0028299 2.14376831 0.00428772 C4.40578419 0.00989025 6.66770148 0.02244307 8.9296875 0.03515625 C10.46223815 0.04017093 11.99479036 0.04473389 13.52734375 0.04882812 C17.28649638 0.05986048 21.04557522 0.07712673 24.8046875 0.09765625 C24.8046875 2.73765625 24.8046875 5.37765625 24.8046875 8.09765625 C16.2246875 8.42765625 7.6446875 8.75765625 -1.1953125 9.09765625 C-2.5755014 11.85803405 -2.35831695 14.15622285 -2.40625 17.2421875 C-2.44878906 19.09360352 -2.44878906 19.09360352 -2.4921875 20.98242188 C-2.54403496 23.58905302 -2.58837536 26.1958449 -2.625 28.80273438 C-2.67140625 30.65995117 -2.67140625 30.65995117 -2.71875 32.5546875 C-2.73856934 33.6888208 -2.75838867 34.8229541 -2.77880859 35.99145508 C-3.38914523 40.54322121 -4.85462299 43.01386709 -8.41479492 45.8918457 C-11.99748962 47.44553164 -14.78314461 47.43724391 -18.68359375 47.390625 C-19.7383918 47.38425774 -19.7383918 47.38425774 -20.8144989 47.37776184 C-23.04600381 47.36105685 -25.27658363 47.32342239 -27.5078125 47.28515625 C-29.0266796 47.27009873 -30.54556096 47.25641219 -32.06445312 47.24414062 C-35.77503684 47.21118098 -39.48508428 47.15945641 -43.1953125 47.09765625 C-43.1953125 44.78765625 -43.1953125 42.47765625 -43.1953125 40.09765625 C-42.02959717 40.06792725 -42.02959717 40.06792725 -40.84033203 40.03759766 C-37.33330559 39.94258616 -33.82689456 39.83281066 -30.3203125 39.72265625 C-29.09699219 39.69171875 -27.87367188 39.66078125 -26.61328125 39.62890625 C-25.44667969 39.59023438 -24.28007812 39.5515625 -23.078125 39.51171875 C-21.45994873 39.4645874 -21.45994873 39.4645874 -19.80908203 39.41650391 C-17.03769596 39.35089303 -17.03769596 39.35089303 -15.1953125 37.09765625 C-14.90518058 34.08642659 -14.90518058 34.08642659 -14.95703125 30.55078125 C-14.94160258 29.21743784 -14.92529829 27.88410433 -14.90820312 26.55078125 C-14.89179814 24.45290261 -14.88278508 22.35574954 -14.88989258 20.2578125 C-14.90705479 7.05226889 -14.90705479 7.05226889 -11.77734375 3.20703125 C-7.75580845 -0.07833798 -5.01239928 -0.03751303 0 0 Z " fill="#BB100C" transform="translate(453.1953125,359.90234375)"/>
<path d="M0 0 C1.20079193 0.00022659 1.20079193 0.00022659 2.42584229 0.00045776 C3.70730133 0.01594162 3.70730133 0.01594162 5.01464844 0.03173828 C5.89683044 0.03456818 6.77901245 0.03739807 7.68792725 0.04031372 C10.50009842 0.05149117 13.31194884 0.07659127 16.12402344 0.10205078 C18.032873 0.11208373 19.94172756 0.12120903 21.85058594 0.12939453 C26.52518833 0.15142254 31.19955153 0.18593567 35.87402344 0.22705078 C35.87402344 2.53705078 35.87402344 4.84705078 35.87402344 7.22705078 C34.33693726 7.26463501 34.33693726 7.26463501 32.76879883 7.30297852 C28.97992667 7.39689562 25.19124463 7.49715396 21.40258789 7.59936523 C19.7603804 7.64277375 18.11812605 7.68444436 16.47583008 7.72436523 C14.12013599 7.78192518 11.76467916 7.8456597 9.40917969 7.91064453 C8.67063248 7.92735703 7.93208527 7.94406952 7.17115784 7.96128845 C3.73101717 7.76253091 3.73101717 7.76253091 0.87402344 9.22705078 C0.71385178 12.03681596 0.61451809 14.82478674 0.55761719 17.63720703 C0.53683609 18.47924179 0.51605499 19.32127655 0.49464417 20.18882751 C0.42905532 22.88898257 0.37022068 25.58923795 0.31152344 28.28955078 C0.26834707 30.11573319 0.22473308 31.94190532 0.18066406 33.76806641 C0.0733645 38.2542907 -0.02787622 42.74061628 -0.12597656 47.22705078 C-4.08597656 47.22705078 -8.04597656 47.22705078 -12.12597656 47.22705078 C-12.22514382 41.78276841 -12.29758565 36.3390163 -12.34570312 30.89404297 C-12.36576995 29.04336382 -12.39303002 27.19274769 -12.42773438 25.34228516 C-12.47647089 22.67611101 -12.49899444 20.01077792 -12.51660156 17.34423828 C-12.5372467 16.5221286 -12.55789185 15.70001892 -12.5791626 14.85299683 C-12.58122882 9.51614492 -11.76301334 6.40270095 -8.12597656 2.22705078 C-5.32514829 0.52158244 -3.26113856 -0.02064012 0 0 Z " fill="#BA100C" transform="translate(269.1259765625,359.77294921875)"/>
<path d="M0 0 C2.64 0 5.28 0 8 0 C8.33 3.96 8.66 7.92 9 12 C22.86 12.33 36.72 12.66 51 13 C51 8.71 51 4.42 51 0 C53.97 0 56.94 0 60 0 C60.13572155 2.39774745 60.23436868 4.78775245 60.3125 7.1875 C60.35439453 7.86103516 60.39628906 8.53457031 60.43945312 9.22851562 C60.53676648 13.21836318 60.16454409 14.7989502 57.60546875 17.92578125 C54.26195118 20.58756211 52.71265313 21.1270286 48.5378418 21.19287109 C47.61315598 21.20893402 46.68847015 21.22499695 45.73576355 21.24154663 C41.50492053 21.28598044 37.27423465 21.32706068 33.04321289 21.35009766 C30.81133601 21.36666015 28.57951223 21.39395381 26.34790039 21.43212891 C23.13139302 21.48687594 19.9161292 21.50876871 16.69921875 21.5234375 C15.70323166 21.54610687 14.70724457 21.56877625 13.68107605 21.59213257 C8.97390529 21.57777115 6.74312813 21.56106962 2.89379883 18.65478516 C-0.10227553 14.45479643 -0.11241592 11.35400756 -0.0625 6.3125 C-0.05347656 5.13300781 -0.04445313 3.95351563 -0.03515625 2.73828125 C-0.02355469 1.83464844 -0.01195313 0.93101562 0 0 Z " fill="#BC130C" transform="translate(117,360)"/>
<path d="M0 0 C1.02286606 0.00278961 2.04573212 0.00557922 3.09959412 0.00845337 C5.25560308 0.02118386 7.41157033 0.0507839 9.56713867 0.09619141 C12.86393059 0.16391535 16.15765311 0.17818531 19.45507812 0.18359375 C21.55341614 0.20259501 23.65172935 0.22462782 25.75 0.25 C26.73343887 0.25647552 27.71687775 0.26295105 28.7301178 0.2696228 C37.37616161 0.47954637 37.37616161 0.47954637 41.30859375 3.7890625 C43.83634726 7.58069277 43.5330241 10.59780281 43.43359375 14.9765625 C43.42457031 15.72615234 43.41554687 16.47574219 43.40625 17.24804688 C43.38271953 19.09518904 43.34684936 20.94216662 43.30859375 22.7890625 C40.66859375 22.7890625 38.02859375 22.7890625 35.30859375 22.7890625 C34.97859375 18.1690625 34.64859375 13.5490625 34.30859375 8.7890625 C20.77859375 8.7890625 7.24859375 8.7890625 -6.69140625 8.7890625 C-7.02140625 13.4090625 -7.35140625 18.0290625 -7.69140625 22.7890625 C-10.66140625 22.7890625 -13.63140625 22.7890625 -16.69140625 22.7890625 C-16.85521476 20.43203998 -16.97298375 18.08659267 -17.06640625 15.7265625 C-17.13601562 14.41558594 -17.205625 13.10460937 -17.27734375 11.75390625 C-17.00439055 7.61162412 -15.41255213 5.29372834 -12.66644287 2.26130676 C-8.84365289 -0.58830147 -4.59456678 -0.12508156 0 0 Z " fill="#BA0E0C" transform="translate(133.69140625,384.2109375)"/>
<path d="M0 0 C-5.66574049 6.92810724 -12.03033639 13.14204142 -18.375 19.4375 C-19.50413955 20.56161467 -20.63304778 21.68596174 -21.76171875 22.81054688 C-24.50515188 25.54305235 -27.25169985 28.27239009 -30 31 C-31.98 30.01 -33.96 29.02 -36 28 C-36.46292448 24.51047452 -36.16914167 23.23785615 -34.0949707 20.32104492 C-31.71532638 17.78860536 -29.33131489 15.26658241 -26.88745117 12.79614258 C-25.32915787 11.20451422 -23.82542618 9.57164757 -22.31835938 7.93164062 C-15.48110821 0.80386768 -10.13469962 -1.6533672 0 0 Z " fill="#BD1A14" transform="translate(191,194)"/>
<path d="M0 0 C6.08811094 5.04171687 11.78059966 10.46223876 17.40966797 16.00463867 C18.47811174 17.05126743 19.55278528 18.09157087 20.63330078 19.12573242 C22.20763556 20.63342241 23.76160156 22.15966385 25.3125 23.69140625 C26.23675781 24.59060791 27.16101563 25.48980957 28.11328125 26.41625977 C30 29 30 29 29.85546875 31.70678711 C29 34 29 34 28 36 C24.51047452 36.46292448 23.23785615 36.16914167 20.32104492 34.0949707 C17.78860536 31.71532638 15.26658241 29.33131489 12.79614258 26.88745117 C11.20451422 25.32915787 9.57164757 23.82542618 7.93164062 22.31835938 C0.39689541 15.09072378 0.39689541 15.09072378 -0.69677734 9.32958984 C-0.69894351 6.13622197 -0.51366727 3.14864326 0 0 Z " fill="#BD1914" transform="translate(253,257)"/>
<path d="M0 0 C6.49691022 0.46350645 10.38074836 5.45048995 14.77661133 9.76074219 C16.29773979 11.23568792 17.85782898 12.65893528 19.42382812 14.0859375 C23.41105784 17.88580518 26.64306978 21.05063203 27.66552734 26.63476562 C27.66769593 29.83213527 27.48802307 32.84291251 27 36 C20.07189276 30.33425951 13.85795858 23.96966361 7.5625 17.625 C6.43838533 16.49586045 5.31403826 15.36695222 4.18945312 14.23828125 C1.45694765 11.49484812 -1.27239009 8.74830015 -4 6 C-1.125 1.125 -1.125 1.125 0 0 Z " fill="#BD1A15" transform="translate(227,96)"/>
<path d="M0 0 C2.29321289 0.91796875 2.29321289 0.91796875 4.29321289 2.91796875 C4.02143491 9.36583274 -1.21983933 13.36252201 -5.4675293 17.69458008 C-6.94247503 19.21570854 -8.36572239 20.77579773 -9.79272461 22.34179688 C-13.59259229 26.32902659 -16.75741914 29.56103853 -22.34155273 30.58349609 C-25.53892238 30.58566468 -28.54969962 30.40599182 -31.70678711 29.91796875 C-26.66507024 23.82985781 -21.24454835 18.13736909 -15.70214844 12.50830078 C-14.65551968 11.43985701 -13.61521624 10.36518347 -12.58105469 9.28466797 C-11.0733647 7.71033319 -9.54712326 6.15636719 -8.01538086 4.60546875 C-7.1161792 3.68121094 -6.21697754 2.75695312 -5.29052734 1.8046875 C-2.70678711 -0.08203125 -2.70678711 -0.08203125 0 0 Z " fill="#BC1611" transform="translate(347.706787109375,165.08203125)"/>
<path d="M0 0 C0 14.19 0 28.38 0 43 C-2.70879335 44.35439668 -5.00933268 44.06501451 -8 44 C-10.28755368 39.42489263 -9.43688914 32.83714243 -9.51489258 27.76220703 C-9.5464248 26.18106814 -9.59406867 24.60016189 -9.65844727 23.02001953 C-10.18508996 9.90482877 -10.18508996 9.90482877 -7.21435547 5.12988281 C-2.15116792 0 -2.15116792 0 0 0 Z " fill="#BB110F" transform="translate(209,239)"/>
<path d="M0 0 C14.19 0 28.38 0 43 0 C43.495 3.465 43.495 3.465 44 7 C41.18575084 9.81424916 38.42626771 9.39776258 34.6484375 9.4765625 C33.91557526 9.49270599 33.18271301 9.50884949 32.42764282 9.52548218 C30.87259374 9.55316649 29.31742306 9.57460981 27.76220703 9.59033203 C25.40285951 9.62459541 23.0492513 9.71228172 20.69140625 9.80078125 C9.64365536 10.02511748 9.64365536 10.02511748 5.12988281 7.20996094 C3.130612 5.23712385 1.48508352 3.38008028 0 1 C0 0.67 0 0.34 0 0 Z " fill="#BA100E" transform="translate(298,239)"/>
<path d="M0 0 C2.69427681 2.69427681 1.45721075 11.38980685 1.51489258 15.16235352 C1.54639038 16.75032726 1.5939973 18.3380709 1.65844727 19.92504883 C2.18575362 33.09118634 2.18575362 33.09118634 -0.78564453 37.87451172 C-2.75990488 39.8743374 -4.61667497 41.51754445 -7 43 C-7.33 43 -7.66 43 -8 43 C-8 28.81 -8 14.62 -8 0 C-4.69676014 -1.10107995 -3.29495231 -0.86709271 0 0 Z " fill="#BC1712" transform="translate(306,107)"/>
<path d="M0 0 C1.1099659 -0.01354271 1.1099659 -0.01354271 2.24235535 -0.02735901 C3.81004788 -0.04187764 5.37780123 -0.05075226 6.94555664 -0.05444336 C9.33650001 -0.06631209 11.72483833 -0.11545003 14.11523438 -0.16601562 C15.63931034 -0.1754833 17.16340214 -0.18271669 18.6875 -0.1875 C19.75494194 -0.21679848 19.75494194 -0.21679848 20.84394836 -0.24668884 C24.66719531 -0.21220657 26.34982699 0.21367725 29.34643555 2.65600586 C31.12658429 4.85640979 32.84477721 7.10683836 34.54296875 9.37109375 C20.35296875 9.37109375 6.16296875 9.37109375 -8.45703125 9.37109375 C-8.78703125 7.06109375 -9.11703125 4.75109375 -9.45703125 2.37109375 C-6.6159315 -0.470006 -3.80804326 0.02845392 0 0 Z " fill="#BC1612" transform="translate(174.45703125,140.62890625)"/>
</svg>
