<svg xmlns="http://www.w3.org/2000/svg" viewBox="0 0 172 106"><defs><style>.cls-1,.cls-2{fill:#ffffff;}.cls-1{fill-rule:evenodd;}</style></defs><title>Ativo 1</title><g id="Camada_2" data-name="Camada 2"><g id="Layer_1" data-name="Layer 1"><g id="sliders_2" data-name="sliders 2"><g id="sliders_3" data-name="sliders 3"><path class="cls-1" d="M1212,189.49c-16.73,0-30.64-9.15-33.47-21.2H1168c-3.31,0-6-2-6-4.55s2.69-4.54,6-4.54h10.53c2.83-12,16.74-21.2,33.47-21.2,18.78,0,34,11.52,34,25.74S1230.78,189.49,1212,189.49Zm0-42.4c-12.15,0-22,7.45-22,16.65s9.85,16.66,22,16.66,22-7.46,22-16.66S1224.15,147.09,1212,147.09Z" transform="translate(-1162 -138)"/><path class="cls-2" d="M1264,168.29c-3.31,0-6-2-6-4.55s2.69-4.54,6-4.54h64c3.31,0,6,2,6,4.54s-2.69,4.55-6,4.55Z" transform="translate(-1162 -138)"/><path class="cls-2" d="M1238,218.26c0,2.5-2.69,4.54-6,4.54h-64c-3.31,0-6-2-6-4.54s2.69-4.55,6-4.55h64C1235.31,213.71,1238,215.75,1238,218.26Z" transform="translate(-1162 -138)"/><path class="cls-1" d="M1328,222.8c3.31,0,6-2,6-4.54s-2.69-4.55-6-4.55h-10.53c-2.83-12.05-16.74-21.2-33.47-21.2-18.78,0-34,11.53-34,25.75S1265.22,244,1284,244c16.73,0,30.64-9.15,33.47-21.2Zm-22-4.54c0-9.2-9.85-16.66-22-16.66s-22,7.46-22,16.66,9.85,16.65,22,16.65S1306,227.46,1306,218.26Z" transform="translate(-1162 -138)"/></g></g></g></g></svg>